<?xml version="1.0" encoding="utf-8"?>
<!-- Generator: Adobe Illustrator 19.0.0, SVG Export Plug-In . SVG Version: 6.00 Build 0)  -->
<svg version="1.1" id="Layer_1" xmlns="http://www.w3.org/2000/svg" xmlns:xlink="http://www.w3.org/1999/xlink" x="0px" y="0px"
	 viewBox="6 -6 512 512" style="enable-background:new 6 -6 512 512;" xml:space="preserve">
<style type="text/css">
	.st0{fill:#333333;}
</style>
<g>
	<g>
		<path class="st0" d="M262,122c-70.7,0-128,57.3-128,128c0,5.9,4.8,10.7,10.7,10.7s10.7-4.8,10.7-10.7c0-28.5,11.1-55.3,31.2-75.4
			c20.1-20.1,46.9-31.2,75.4-31.2h0c5.9,0,10.7-4.8,10.7-10.7S267.9,122,262,122z"/>
	</g>
</g>
<g>
	<g>
		<path class="st0" d="M379.3,239.3c-5.9,0-10.7,4.8-10.7,10.7c0,28.5-11.1,55.3-31.2,75.4s-46.9,31.2-75.4,31.2
			c-5.9,0-10.7,4.8-10.7,10.7S256.1,378,262,378c70.7,0,128-57.3,128-128C390,244.1,385.2,239.3,379.3,239.3z"/>
	</g>
</g>
<g>
	<g>
		<path class="st0" d="M262,79.3c-94.3,0-170.7,76.4-170.7,170.7c0,5.9,4.8,10.7,10.7,10.7s10.7-4.8,10.7-10.7
			c0-20.2,3.9-39.7,11.7-58.1c7.5-17.8,18.3-33.8,32-47.5c13.7-13.7,29.7-24.5,47.5-32c18.4-7.8,37.9-11.7,58.1-11.7
			c5.9,0,10.7-4.8,10.7-10.7S267.9,79.3,262,79.3z"/>
	</g>
</g>
<g>
	<g>
		<path class="st0" d="M422,239.3c-5.9,0-10.7,4.8-10.7,10.7c0,20.2-4,39.7-11.7,58.1c-7.5,17.8-18.3,33.8-32,47.5
			s-29.7,24.5-47.5,32c-18.4,7.8-38,11.7-58.1,11.7c-5.9,0-10.7,4.8-10.7,10.7s4.8,10.7,10.7,10.7c94.3,0,170.7-76.4,170.7-170.7
			C432.7,244.1,427.9,239.3,422,239.3z"/>
	</g>
</g>
<g>
	<g>
		<path class="st0" d="M262,36.7C144.2,36.7,48.7,132.2,48.7,250c0,5.9,4.8,10.7,10.7,10.7S70,255.9,70,250
			c0-25.9,5.1-51.1,15.1-74.7c9.7-22.9,23.5-43.4,41.2-61s38.2-31.5,61-41.2C210.9,63.1,236.1,58,262,58c5.9,0,10.7-4.8,10.7-10.7
			S267.9,36.7,262,36.7z"/>
	</g>
</g>
<g>
	<g>
		<path class="st0" d="M464.7,239.3c-5.9,0-10.7,4.8-10.7,10.7c0,25.9-5.1,51.1-15.1,74.7c-9.7,22.9-23.5,43.4-41.2,61
			s-38.2,31.5-61,41.2c-23.7,10-48.8,15.1-74.7,15.1c-5.9,0-10.7,4.8-10.7,10.7c0,5.9,4.8,10.7,10.7,10.7
			c117.8,0,213.3-95.5,213.3-213.3C475.3,244.1,470.6,239.3,464.7,239.3z"/>
	</g>
</g>
<g>
	<g>
		<path class="st0" d="M262-6C120.6-6,6,108.6,6,250c0,141.4,114.6,256,256,256c141.4,0,256-114.6,256-256C518,108.6,403.4-6,262-6z
			 M427.9,415.9c-21.6,21.6-46.7,38.5-74.6,50.3c-28.9,12.2-59.7,18.4-91.3,18.4s-62.4-6.2-91.3-18.4c-27.9-11.8-53-28.7-74.6-50.3
			c-21.6-21.6-38.5-46.7-50.3-74.6c-12.2-28.9-18.4-59.7-18.4-91.3s6.2-62.4,18.4-91.3c11.8-27.9,28.7-53,50.3-74.6
			c21.6-21.6,46.7-38.5,74.6-50.3c28.9-12.2,59.6-18.4,91.3-18.4s62.4,6.2,91.3,18.4c27.9,11.8,53,28.7,74.6,50.3
			c21.6,21.6,38.5,46.7,50.3,74.6c12.2,28.9,18.4,59.6,18.4,91.3s-6.2,62.4-18.4,91.3C466.4,369.3,449.5,394.4,427.9,415.9z"/>
	</g>
</g>
<g>
	<g>
		<path class="st0" d="M262,164.7c-47.1,0-85.3,38.2-85.3,85.3c0,47.1,38.2,85.3,85.3,85.3s85.3-38.2,85.3-85.3
			C347.3,202.9,309.1,164.7,262,164.7z M262,314c-35.3,0-64-28.7-64-64c0-35.3,28.7-64,64-64c35.3,0,64,28.7,64,64
			C326,285.3,297.3,314,262,314z"/>
	</g>
</g>
<g>
	<g>
		<path class="st0" d="M262,239.3c-5.9,0-10.7,4.8-10.7,10.7s4.8,10.7,10.7,10.7s10.7-4.8,10.7-10.7S267.9,239.3,262,239.3z"/>
	</g>
</g>
</svg>
