<?xml version="1.0" encoding="utf-8"?>
<!-- Generator: Adobe Illustrator 19.0.0, SVG Export Plug-In . SVG Version: 6.00 Build 0)  -->
<svg version="1.1" id="Calque_1" xmlns="http://www.w3.org/2000/svg" xmlns:xlink="http://www.w3.org/1999/xlink" x="0px" y="0px"
	 viewBox="0 0 500 500" style="enable-background:new 0 0 500 500;" xml:space="preserve">
<style type="text/css">
	.st0{stroke:#000000;stroke-width:40;stroke-linecap:round;stroke-linejoin:round;stroke-miterlimit:10;}
</style>
<g id="XMLID_6_">
	<path id="XMLID_19_" d="M349.6,460c-2.6,0-5.2-1-7.1-2.9L219.7,333.7l-72.3-24.3c-4.1-1.4-6.9-5.2-6.8-9.6L141,250l-0.6-49.9
		c-0.1-4.3,2.7-8.2,6.8-9.6l72.5-24.2L342.5,42.9c1.9-1.9,4.5-2.9,7.1-2.9c1.3,0,2.8,0.2,4,0.8c3.7,1.5,6.4,5.2,6.4,9.2v400
		c0,4-2.6,7.7-6.4,9.2C352.4,459.8,350.9,460,349.6,460z"/>
	<path id="XMLID_16_" d="M350,50v200v200L225.3,325l-74.6-25l0.4-50l-0.6-50l74.9-25L350,50 M349.6,30c-5.2,0-10.3,2-14.2,5.9
		L214.3,157.5L144,181c-8.2,2.8-13.8,10.5-13.7,19.2L131,250l-0.4,49.8c-0.1,8.7,5.4,16.4,13.6,19.1l70.1,23.5l121.2,121.7
		c3.8,3.8,9,5.9,14.2,5.9c2.6,0,5.3-0.5,7.8-1.5c7.5-3.1,12.6-10.4,12.6-18.5V250V50c0-8.1-5.1-15.4-12.6-18.5
		C355,30.5,352.2,30,349.6,30L349.6,30z"/>
</g>
<line id="XMLID_4_" class="st0" x1="75" y1="75" x2="425" y2="425"/>
</svg>
