<?xml version="1.0" encoding="utf-8"?>
<!-- Generator: Adobe Illustrator 19.0.0, SVG Export Plug-In . SVG Version: 6.00 Build 0)  -->
<svg version="1.1" id="Capa_1" xmlns="http://www.w3.org/2000/svg" xmlns:xlink="http://www.w3.org/1999/xlink" x="0px" y="0px"
	 viewBox="-30 31.5 438.5 438.5" style="enable-background:new -30 31.5 438.5 438.5;" xml:space="preserve">
<style type="text/css">
	.st0{fill:#333333;}
</style>
<g>
	<g>
		<path class="st0" d="M403.1,55.2c-3.6-3.6-7.9-5.4-12.8-5.4c-4.9,0-9.2,1.8-12.8,5.4L340.3,92c-20.4-19.2-43.7-34.1-69.9-44.7
			c-26.3-10.6-53.3-15.8-81.1-15.8c-52.3,0-98,15.8-137,47.5c-39,31.7-64.7,73-77.1,124v2c0,2.5,0.9,4.6,2.7,6.4
			c1.8,1.8,3.9,2.7,6.4,2.7h56.8c4.2,0,7-2.2,8.6-6.6c8-19,13-30.2,15.1-33.4c13.3-21.7,31-38.7,53.1-51.1
			c22.1-12.4,45.9-18.6,71.4-18.6c38.3,0,71.5,13,99.6,39.1l-39.4,39.4c-3.6,3.6-5.4,7.9-5.4,12.9c0,4.9,1.8,9.2,5.4,12.8
			c3.6,3.6,7.9,5.4,12.9,5.4h127.9c4.9,0,9.2-1.8,12.8-5.4c3.6-3.6,5.4-7.9,5.4-12.8V68C408.5,63.1,406.7,58.8,403.1,55.2z"/>
		<path class="st0" d="M392.3,287.3h-54.8c-4.2,0-7,2.2-8.6,6.6c-8,19-13,30.2-15.1,33.4c-13.3,21.7-31,38.7-53.1,51.1
			c-22.1,12.4-45.9,18.6-71.4,18.6c-18.5,0-36.3-3.4-53.4-10.3c-17.1-6.9-32.5-16.6-46-29.1l39.1-39.1c3.6-3.6,5.4-7.9,5.4-12.8
			c0-4.9-1.8-9.2-5.4-12.8c-3.6-3.6-7.9-5.4-12.8-5.4H-11.7c-5,0-9.2,1.8-12.9,5.4c-3.6,3.6-5.4,7.9-5.4,12.8v127.9
			c0,4.9,1.8,9.2,5.4,12.8c3.6,3.6,7.9,5.4,12.9,5.4c4.9,0,9.2-1.8,12.8-5.4L38,409.5c20.4,19.4,43.5,34.4,69.5,44.8
			c26,10.5,52.9,15.7,80.7,15.7c52.2,0,97.6-15.8,136.5-47.5c38.8-31.7,64.3-73,76.5-124c0.2-0.4,0.3-1,0.3-2c0-2.5-0.9-4.6-2.7-6.4
			C396.9,288.2,394.7,287.3,392.3,287.3z"/>
	</g>
</g>
</svg>
