<?xml version="1.0" encoding="utf-8"?>
<!-- Generator: Adobe Illustrator 19.0.0, SVG Export Plug-In . SVG Version: 6.00 Build 0)  -->
<svg version="1.1" id="Capa_1" xmlns="http://www.w3.org/2000/svg" xmlns:xlink="http://www.w3.org/1999/xlink" x="0px" y="0px"
	 viewBox="-11 13.9 475.1 475.1" style="enable-background:new -11 13.9 475.1 475.1;" xml:space="preserve">
<style type="text/css">
	.st0{fill:#FFFFFF;}
</style>
<g>
	<path class="st0" d="M453.5,426.8l-97.9-97.9c23.6-34.1,35.4-72,35.4-113.9c0-27.2-5.3-53.2-15.9-78.1
		c-10.6-24.8-24.8-46.3-42.8-64.2s-39.4-32.3-64.2-42.8c-24.8-10.6-50.9-15.8-78.1-15.8c-27.2,0-53.2,5.3-78.1,15.8
		C87.1,40.3,65.7,54.6,47.7,72.6c-18,18-32.3,39.4-42.8,64.2C-5.7,161.7-11,187.7-11,214.9c0,27.2,5.3,53.2,15.8,78.1
		c10.6,24.8,24.8,46.2,42.8,64.2c18,18,39.4,32.3,64.2,42.8c24.8,10.6,50.9,15.8,78.1,15.8c41.9,0,79.9-11.8,113.9-35.4l97.9,97.6
		c6.9,7.2,15.4,10.8,25.7,10.8c9.9,0,18.5-3.6,25.7-10.8c7.2-7.2,10.8-15.8,10.8-25.7C464.1,442.4,460.6,433.8,453.5,426.8z
		 M280.4,305.3c-25,25-55.1,37.5-90.4,37.5c-35.2,0-65.3-12.5-90.4-37.5c-25-25-37.5-55.1-37.5-90.4c0-35.2,12.5-65.3,37.5-90.4
		c25-25,55.1-37.5,90.4-37.5c35.2,0,65.3,12.5,90.4,37.5c25,25,37.5,55.1,37.5,90.4C317.9,250.1,305.4,280.2,280.4,305.3z"/>
</g>
</svg>
