<?xml version="1.0" encoding="utf-8"?>
<!-- Generator: Adobe Illustrator 19.0.0, SVG Export Plug-In . SVG Version: 6.00 Build 0)  -->
<svg version="1.1" id="Calque_1" xmlns="http://www.w3.org/2000/svg" xmlns:xlink="http://www.w3.org/1999/xlink" x="0px" y="0px"
	 viewBox="0 0 500 500" style="enable-background:new 0 0 500 500;" xml:space="preserve">
<style type="text/css">
	.st0{stroke:#000000;stroke-width:30;stroke-linecap:round;stroke-linejoin:round;stroke-miterlimit:10;}
</style>
<g id="XMLID_5_">
	<path id="XMLID_18_" d="M137.5,390c-2.6,0-5.5-0.7-7.9-2.1c-4.6-2.7-7.6-7.6-7.6-12.9V125c0-5.3,3.1-10.2,7.6-12.9
		c2.3-1.4,5.1-2.1,7.7-2.1c2.5,0,5.1,0.6,7.3,1.9l225,125c4.8,2.6,7.7,7.7,7.7,13.1c0,5.4-2.9,10.5-7.7,13.1l-225,125
		C142.5,389.4,140,390,137.5,390z"/>
	<path id="XMLID_15_" d="M137,125l225,125L137,375V125 M137.5,95c-5.3,0-10.8,1.4-15.5,4.1c-9.2,5.4-15,15.2-15,25.9v250
		c0,10.6,5.9,20.5,15,25.9c4.7,2.8,10.1,4.1,15.3,4.1c5,0,10.1-1.3,14.6-3.8l225-125c9.5-5.3,15.4-15.3,15.4-26.2
		c0-10.9-5.9-20.9-15.4-26.2l-225-125C147.5,96.3,142.5,95,137.5,95L137.5,95z"/>
</g>
<line id="XMLID_2_" class="st0" x1="378" y1="125" x2="378" y2="375"/>
</svg>
