<?xml version="1.0" encoding="utf-8"?>
<!-- Generator: Adobe Illustrator 19.0.0, SVG Export Plug-In . SVG Version: 6.00 Build 0)  -->
<svg version="1.1" id="Calque_1" xmlns="http://www.w3.org/2000/svg" xmlns:xlink="http://www.w3.org/1999/xlink" x="0px" y="0px"
	 viewBox="0 0 500 500" style="enable-background:new 0 0 500 500;" xml:space="preserve">
<style type="text/css">
	.st0{fill:#333333;}
	.st1{fill:none;stroke:#333333;stroke-width:50;stroke-linecap:round;stroke-linejoin:round;stroke-miterlimit:10;}
</style>
<g id="XMLID_5_">
	<path id="XMLID_18_" class="st0" d="M374,386c-2.5,0-5-0.6-7.3-1.9l-225-125c-4.8-2.6-7.7-7.7-7.7-13.1c0-5.4,3-10.5,7.7-13.1
		l225-125c2.3-1.3,4.8-1.9,7.3-1.9c2.6,0,5.3,0.7,7.6,2.1c4.6,2.7,7.4,7.6,7.4,12.9v250c0,5.3-2.8,10.2-7.4,12.9
		C379.3,385.3,376.6,386,374,386z"/>
	<path id="XMLID_15_" class="st0" d="M374,121v250L149,246L374,121 M374,91c-5,0-10,1.3-14.6,3.8l-225,125
		c-9.5,5.3-15.4,15.3-15.4,26.2s5.9,20.9,15.4,26.2l225,125c4.5,2.5,9.6,3.8,14.6,3.8c5.3,0,10.5-1.4,15.2-4.1
		c9.2-5.4,14.8-15.2,14.8-25.9V121c0-10.6-5.6-20.5-14.8-25.9C384.5,92.4,379.3,91,374,91L374,91z"/>
</g>
<line id="XMLID_2_" class="st1" x1="133" y1="121" x2="133" y2="371"/>
</svg>
